<svg xmlns="http://www.w3.org/2000/svg" width="60" height="60" viewBox="0 0 60 60" fill="none">
  <g clip-path="url(#clip0_17_279)">
    <path d="M20.9372 13.9449C21.768 15.4637 23.0365 16.6576 24.1557 17.7104C24.342 17.8858 24.5269 18.0597 24.7073 18.2327C25.4022 18.9002 26.1007 19.5392 26.7759 20.1563C27.436 20.7596 28.1181 21.3835 28.7823 22.0212L30 23.1903L31.2176 22.0212C31.8814 21.384 32.5634 20.7605 33.2231 20.1572C33.8987 19.5397 34.5973 18.9006 35.2926 18.2327C35.4725 18.0597 35.6575 17.8862 35.8438 17.7109C36.9635 16.6576 38.2319 15.4637 39.0628 13.9449C40.2168 11.8346 40.1783 9.38645 38.9598 7.39609C37.7618 5.43915 35.8996 4.35242 33.717 4.33594C32.4252 4.32587 31.1595 4.69391 30.0476 5.39521L30 5.42496L29.9569 5.39795C28.8546 4.70261 27.6027 4.33594 26.3324 4.33594C26.3159 4.33594 26.2999 4.33594 26.2829 4.33594C24.1003 4.35242 22.2381 5.43915 21.0402 7.39609C19.8216 9.38645 19.7831 11.8346 20.9372 13.9449Z" fill="url(#paint0_linear_17_279)"/>
    <path d="M52.1576 37.1031V31.1481C52.1576 25.4984 47.5612 20.9015 41.911 20.9015C36.4998 20.9015 32.0554 25.1184 31.6896 30.4385H28.3104C27.9446 25.1184 23.5002 20.9015 18.089 20.9015C12.4388 20.9015 7.84241 25.4984 7.84241 31.1481V37.1031H0V43.4523C0 48.002 3.70148 51.7035 8.25119 51.7035H8.75015V55.5688H12.2658V51.7035H15.2316V55.5688H18.7473V51.6888C24.082 51.4069 28.3356 46.978 28.3356 41.5741V33.9542H31.6644V41.5741C31.6644 46.978 35.918 51.4069 41.2527 51.6888V55.5688H44.7684V51.7035H47.7342V55.5688H51.2498V51.7035H51.7488C56.2985 51.7035 60 48.002 60 43.4523V37.1031H52.1576ZM21.5918 39.8245C21.5918 42.7588 19.205 45.146 16.2708 45.146H13.0875V41.6304H16.2708C17.2664 41.6304 18.0762 40.8206 18.0762 39.8245V38.0594H21.5918V39.8245ZM21.5918 32.5896H18.0762V29.0739H21.5918V32.5896ZM38.4082 29.0739H41.9238V32.5896H38.4082V29.0739ZM46.9125 45.146H43.7292C40.795 45.146 38.4082 42.7588 38.4082 39.8245V38.0594H41.9238V39.8245C41.9238 40.8206 42.7336 41.6304 43.7292 41.6304H46.9125V45.146Z" fill="url(#paint1_linear_17_279)"/>
  </g>
  <defs>
    <linearGradient id="paint0_linear_17_279" x1="20.0981" y1="13.763" x2="39.9018" y2="13.763" gradientUnits="userSpaceOnUse">
      <stop stop-color="#EE0979"/>
      <stop offset="1" stop-color="#FF6A00"/>
    </linearGradient>
    <linearGradient id="paint1_linear_17_279" x1="-3.35276e-07" y1="38.2352" x2="60" y2="38.2352" gradientUnits="userSpaceOnUse">
      <stop stop-color="#EE0979"/>
      <stop offset="1" stop-color="#FF6A00"/>
    </linearGradient>
    <clipPath id="clip0_17_279">
      <rect width="60" height="60" fill="white"/>
    </clipPath>
  </defs>
</svg>