<svg xmlns="http://www.w3.org/2000/svg" width="20" height="20" viewBox="0 0 20 20" fill="none">
  <path d="M18.2422 3.14879H1.75781C0.788555 3.14879 0 3.93734 0 4.9066V15.0934C0 16.0627 0.788555 16.8512 1.75781 16.8512H18.2422C19.2114 16.8512 20 16.0627 20 15.0934V4.9066C20 3.93734 19.2114 3.14879 18.2422 3.14879ZM18.0128 4.32066L17.7782 4.51602L10.6974 10.4121C10.2933 10.7486 9.70664 10.7486 9.30258 10.4121L2.22184 4.51602L1.98723 4.32066H18.0128ZM1.17188 5.16668L6.94109 9.9707L1.17188 13.8103V5.16668ZM18.2422 15.6793H1.75781C1.47469 15.6793 1.23789 15.4775 1.18363 15.2102L7.8807 10.7531L8.55273 11.3127C8.97203 11.6618 9.48606 11.8364 10 11.8364C10.514 11.8364 11.028 11.6618 11.4473 11.3127L12.1194 10.7531L18.8164 15.2101C18.7621 15.4775 18.5253 15.6793 18.2422 15.6793ZM18.8281 13.8103L13.0589 9.97074L18.8281 5.16668V13.8103Z" fill="#8B5D9A"/>
</svg>