<svg width="320" height="24" viewBox="0 0 320 24" fill="none" xmlns="http://www.w3.org/2000/svg">
<path d="M308 10V13" stroke="#A01414" stroke-width="2" stroke-linecap="round"/>
<path fill-rule="evenodd" clip-rule="evenodd" d="M308 17C308.552 17 309 16.5523 309 16C309 15.4477 308.552 15 308 15C307.448 15 307 15.4477 307 16C307 16.5523 307.448 17 308 17Z" fill="#A01414"/>
<path fill-rule="evenodd" clip-rule="evenodd" d="M307.138 4.46529C307.525 3.80798 308.475 3.80798 308.862 4.46529L317.114 18.493C317.506 19.1596 317.025 20 316.252 20H299.748C298.975 20 298.494 19.1596 298.886 18.493L307.138 4.46529Z" stroke="#A01414" stroke-width="2" stroke-linejoin="round"/>
<path d="M18.2422 4.1488H1.75781C0.788555 4.1488 0 4.93736 0 5.90662V16.0934C0 17.0627 0.788555 17.8512 1.75781 17.8512H18.2422C19.2114 17.8512 20 17.0627 20 16.0934V5.90662C20 4.93736 19.2114 4.1488 18.2422 4.1488ZM18.0128 5.32068L17.7782 5.51603L10.6974 11.4122C10.2933 11.7486 9.70664 11.7486 9.30258 11.4122L2.22184 5.51603L1.98723 5.32068H18.0128ZM1.17188 6.16669L6.94109 10.9707L1.17188 14.8103V6.16669ZM18.2422 16.6794H1.75781C1.47469 16.6794 1.23789 16.4775 1.18363 16.2102L7.8807 11.7531L8.55273 12.3127C8.97203 12.6619 9.48606 12.8364 10 12.8364C10.514 12.8364 11.028 12.6619 11.4473 12.3127L12.1194 11.7531L18.8164 16.2101C18.7621 16.4775 18.5253 16.6794 18.2422 16.6794ZM18.8281 14.8103L13.0589 10.9708L18.8281 6.16669V14.8103Z" fill="#8B5D9A"/>
</svg>
