<svg xmlns="http://www.w3.org/2000/svg" width="20" height="20" viewBox="0 0 20 20" fill="none">
  <path d="M14.4531 14.2969C14.8846 14.2969 15.2344 13.9471 15.2344 13.5156C15.2344 13.0842 14.8846 12.7344 14.4531 12.7344C14.0217 12.7344 13.6719 13.0842 13.6719 13.5156C13.6719 13.9471 14.0217 14.2969 14.4531 14.2969Z" fill="#8B5D9A"/>
  <path d="M17.9688 14.1406C18.4002 14.1406 18.75 13.7909 18.75 13.3594V10.4688C18.75 8.74562 17.3481 7.34375 15.625 7.34375H14.6861V4.58852C14.6861 2.0584 12.5832 0 9.99855 0C7.41387 0 5.31105 2.0584 5.31105 4.58852V7.34375H4.375C2.65188 7.34375 1.25 8.74562 1.25 10.4688V16.875C1.25 18.5981 2.65188 20 4.375 20H15.625C17.3481 20 18.75 18.5981 18.75 16.875C18.75 16.4435 18.4002 16.0938 17.9688 16.0938C17.5373 16.0938 17.1875 16.4435 17.1875 16.875C17.1875 17.7366 16.4866 18.4375 15.625 18.4375H4.375C3.51344 18.4375 2.8125 17.7366 2.8125 16.875V10.4688C2.8125 9.60719 3.51344 8.90625 4.375 8.90625H15.625C16.4866 8.90625 17.1875 9.60719 17.1875 10.4688V13.3594C17.1875 13.7909 17.5373 14.1406 17.9688 14.1406ZM13.1236 7.34375H6.87355V4.58852C6.87355 2.91996 8.27543 1.5625 9.99855 1.5625C11.7217 1.5625 13.1236 2.91996 13.1236 4.58852V7.34375Z" fill="#8B5D9A"/>
  <path d="M8.55469 14.2969C8.98616 14.2969 9.33594 13.9471 9.33594 13.5156C9.33594 13.0842 8.98616 12.7344 8.55469 12.7344C8.12322 12.7344 7.77344 13.0842 7.77344 13.5156C7.77344 13.9471 8.12322 14.2969 8.55469 14.2969Z" fill="#8B5D9A"/>
  <path d="M5.625 14.2969C6.05647 14.2969 6.40625 13.9471 6.40625 13.5156C6.40625 13.0842 6.05647 12.7344 5.625 12.7344C5.19353 12.7344 4.84375 13.0842 4.84375 13.5156C4.84375 13.9471 5.19353 14.2969 5.625 14.2969Z" fill="#8B5D9A"/>
  <path d="M11.4844 14.2969C11.9158 14.2969 12.2656 13.9471 12.2656 13.5156C12.2656 13.0842 11.9158 12.7344 11.4844 12.7344C11.0529 12.7344 10.7031 13.0842 10.7031 13.5156C10.7031 13.9471 11.0529 14.2969 11.4844 14.2969Z" fill="#8B5D9A"/>
</svg>