<svg xmlns="http://www.w3.org/2000/svg" width="36" height="36" viewBox="0 0 36 36" fill="none">
  <path d="M18.0002 3C24.0002 3 34.0002 6 34.0002 19C34.0002 32 34.0002 35 31.0002 35C28.0002 35 24.0002 32 18.0002 32C12.0002 32 8.08518 35 5.00018 35C1.65718 35 2.00018 23 2.00018 19C2.00018 6 12.0002 3 18.0002 3Z" fill="#E95F28"/>
  <path d="M6 18.562C6 10.036 11.373 3.12399 18 3.12399C24.627 3.12399 30 10.036 30 18.562C30 27.088 24.627 34 18 34C11.373 34 6 27.088 6 18.562Z" fill="#FFDC5D"/>
  <path d="M17.9998 30C15.6528 30 14.4248 28.84 14.2928 28.707C13.9018 28.316 13.9018 27.684 14.2928 27.293C14.6798 26.906 15.3058 26.903 15.6968 27.283C15.7478 27.33 16.5028 28 17.9998 28C19.5188 28 20.2728 27.31 20.3048 27.281C20.7028 26.908 21.3318 26.919 21.7128 27.31C22.0918 27.703 22.0928 28.321 21.7068 28.707C21.5748 28.84 20.3468 30 17.9998 30Z" fill="#DF1F32"/>
  <path d="M19 25H17C16.448 25 16 24.553 16 24C16 23.447 16.448 23 17 23H19C19.553 23 20 23.447 20 24C20 24.553 19.553 25 19 25Z" fill="#C1694F"/>
  <path d="M3.06376 24C3.03376 23.675 2.99976 23.353 2.99976 23C2.99976 18 5.99976 23.562 5.99976 20C5.99976 16.437 7.99976 16 9.99976 14L12.9998 11C12.9998 11 17.9998 14 21.9998 14C25.9998 14 29.9998 16 29.9998 20C29.9998 24 32.9998 18 32.9998 23C32.9998 23.355 32.9668 23.673 32.9418 24H33.9908C33.9998 22.523 33.9998 20.868 33.9998 19C33.9998 6 23.9998 1 17.9998 1C11.9998 1 1.99976 6 1.99976 19C1.99976 20.158 1.97176 21.986 2.01176 24H3.06376Z" fill="#E95F28"/>
  <path d="M13 22C12.448 22 12 21.553 12 21V19C12 18.448 12.448 18 13 18C13.552 18 14 18.448 14 19V21C14 21.553 13.552 22 13 22ZM23 22C22.447 22 22 21.553 22 21V19C22 18.448 22.447 18 23 18C23.553 18 24 18.448 24 19V21C24 21.553 23.553 22 23 22Z" fill="#662113"/>
</svg>