<svg width="1920" height="1080" viewBox="0 0 1920 1080" fill="none" xmlns="http://www.w3.org/2000/svg">
<g filter="url(#filter0_f_9233_1929)">
<circle cx="192" cy="170" r="476" fill="#381A42"/>
</g>
<path fill-rule="evenodd" clip-rule="evenodd" d="M917.864 -231.919C1076.4 -210.125 1105.91 16.9713 1231.55 116.176C1348.77 208.734 1539.58 193.399 1617.77 320.72C1700.63 455.672 1702.49 637.558 1641.45 783.706C1582.3 925.329 1425.62 986.787 1301.77 1077.3C1177.55 1168.09 1071.35 1322.45 917.864 1312.55C764.655 1302.65 688.291 1125.85 568.32 1029.95C456.093 940.248 263.177 910.972 238.327 769.38C212.881 624.396 403.374 535.499 457.518 398.636C506.04 275.988 456.887 126.878 534.643 20.3723C627.116 -106.293 762.595 -253.264 917.864 -231.919Z" stroke="#492258"/>
<path fill-rule="evenodd" clip-rule="evenodd" d="M925.779 -86.3105C1054.53 -68.6161 1078.5 115.762 1180.54 196.306C1275.74 271.453 1430.71 259.002 1494.21 362.374C1561.51 471.941 1563.02 619.612 1513.44 738.27C1465.4 853.252 1338.16 903.149 1237.57 976.639C1136.69 1050.35 1050.43 1175.68 925.779 1167.63C801.35 1159.6 739.33 1016.05 641.895 938.195C550.749 865.364 394.072 841.596 373.89 726.638C353.224 608.927 507.933 536.751 551.907 425.633C591.314 326.056 551.394 204.995 614.544 118.523C689.647 15.6846 799.676 -103.64 925.779 -86.3105Z" stroke="#492258"/>
<path fill-rule="evenodd" clip-rule="evenodd" d="M930.091 -16.4988C1044.5 -0.776719 1065.8 163.05 1156.47 234.616C1241.07 301.387 1378.78 290.324 1435.2 382.173C1495 479.527 1496.34 610.738 1452.29 716.17C1409.6 818.335 1296.53 862.671 1207.15 927.969C1117.51 993.462 1040.86 1104.82 930.091 1097.67C819.522 1090.54 764.412 962.989 677.83 893.811C596.838 829.098 457.614 807.979 439.679 705.834C421.315 601.244 558.791 537.114 597.866 438.381C632.883 349.903 597.411 242.336 653.526 165.503C720.263 74.1274 818.035 -31.8969 930.091 -16.4988Z" stroke="#492258"/>
<path fill-rule="evenodd" clip-rule="evenodd" d="M932.71 31.3721C1037.27 45.7417 1056.73 195.476 1139.59 260.886C1216.91 321.913 1342.75 311.801 1394.32 395.75C1448.97 484.729 1450.19 604.653 1409.94 701.015C1370.93 794.392 1267.59 834.914 1185.91 894.595C1103.98 954.455 1033.94 1056.23 932.71 1049.7C831.664 1043.18 781.3 926.603 702.175 863.375C628.158 804.229 500.924 784.927 484.535 691.569C467.752 595.975 593.388 537.362 629.098 447.123C661.099 366.256 628.682 267.942 679.964 197.718C740.953 114.202 830.305 17.2985 932.71 31.3721Z" stroke="#492258"/>
<path fill-rule="evenodd" clip-rule="evenodd" d="M935.905 99.1891C1026.56 111.643 1043.43 241.412 1115.28 298.101C1182.31 350.991 1291.42 342.228 1336.13 414.983C1383.51 492.098 1384.57 596.033 1349.67 679.547C1315.85 760.473 1226.25 795.592 1155.43 847.316C1084.4 899.194 1023.67 987.402 935.905 981.74C848.297 976.088 804.631 875.056 736.028 820.259C671.854 768.999 561.541 752.27 547.33 671.36C532.78 588.512 641.708 537.714 672.669 459.506C700.415 389.421 672.308 304.216 716.771 243.356C769.649 170.975 847.119 86.992 935.905 99.1891Z" stroke="#492258"/>
<path fill-rule="evenodd" clip-rule="evenodd" d="M940.668 226.95C1013.13 236.902 1026.62 340.599 1084.05 385.898C1137.63 428.162 1224.84 421.16 1260.58 479.298C1298.46 540.919 1299.31 623.972 1271.41 690.707C1244.37 755.375 1172.76 783.438 1116.15 824.769C1059.37 866.225 1010.82 936.711 940.668 932.187C870.639 927.67 835.734 846.936 780.898 803.148C729.601 762.187 641.422 748.819 630.063 684.165C618.433 617.962 705.504 577.37 730.252 514.875C752.43 458.872 729.963 390.785 765.504 342.152C807.772 284.314 869.697 217.204 940.668 226.95Z" fill="url(#paint0_linear_9233_1929)"/>
<g filter="url(#filter1_f_9233_1929)">
<circle cx="1448.5" cy="1167.5" r="672.5" fill="#381A42"/>
</g>
<defs>
<filter id="filter0_f_9233_1929" x="-584" y="-606" width="1552" height="1552" filterUnits="userSpaceOnUse" color-interpolation-filters="sRGB">
<feFlood flood-opacity="0" result="BackgroundImageFix"/>
<feBlend mode="normal" in="SourceGraphic" in2="BackgroundImageFix" result="shape"/>
<feGaussianBlur stdDeviation="150" result="effect1_foregroundBlur_9233_1929"/>
</filter>
<filter id="filter1_f_9233_1929" x="476" y="195" width="1945" height="1945" filterUnits="userSpaceOnUse" color-interpolation-filters="sRGB">
<feFlood flood-opacity="0" result="BackgroundImageFix"/>
<feBlend mode="normal" in="SourceGraphic" in2="BackgroundImageFix" result="shape"/>
<feGaussianBlur stdDeviation="150" result="effect1_foregroundBlur_9233_1929"/>
</filter>
<linearGradient id="paint0_linear_9233_1929" x1="629" y1="579.197" x2="1290.86" y2="579.197" gradientUnits="userSpaceOnUse">
<stop stop-color="#EE0979"/>
<stop offset="1" stop-color="#FF6A00"/>
</linearGradient>
</defs>
</svg>
