<svg width="262" height="60" viewBox="0 0 262 60" fill="none" xmlns="http://www.w3.org/2000/svg">
<g clip-path="url(#clip0_17_4432)">
<path d="M20.9373 13.9449C21.7682 15.4637 23.0367 16.6576 24.1559 17.7104C24.3422 17.8858 24.5271 18.0597 24.7075 18.2327C25.4024 18.9002 26.1009 19.5392 26.7761 20.1563C27.4362 20.7596 28.1183 21.3835 28.7825 22.0212C29.4629 22.6744 30.5375 22.6744 31.2178 22.0212C31.8816 21.384 32.5636 20.7605 33.2233 20.1572C33.8989 19.5397 34.5975 18.9006 35.2928 18.2327C35.4727 18.0597 35.6577 17.8862 35.844 17.7109C36.9637 16.6576 38.2321 15.4637 39.063 13.9449C40.217 11.8346 40.1785 9.38645 38.96 7.39609C37.762 5.43915 35.8998 4.35242 33.7172 4.33594C32.4254 4.32587 31.1597 4.69391 30.0478 5.39521L30.0432 5.39803C30.0169 5.4145 29.9834 5.41447 29.9571 5.39795C28.8548 4.70261 27.6028 4.33594 26.3326 4.33594C26.3161 4.33594 26.3 4.33594 26.2831 4.33594C24.1005 4.35242 22.2383 5.43915 21.0403 7.39609C19.8218 9.38645 19.7833 11.8346 20.9373 13.9449Z" fill="url(#paint0_linear_17_4432)"/>
<path d="M56.0788 37.1031C53.9132 37.1031 52.1576 35.3475 52.1576 33.1819V31.1481C52.1576 25.4984 47.5612 20.9015 41.911 20.9015C37.0798 20.9015 33.0193 24.2628 31.944 28.7696C31.7232 29.6949 30.9513 30.4385 30 30.4385C29.0487 30.4385 28.2768 29.6949 28.056 28.7696C26.9807 24.2628 22.9202 20.9015 18.089 20.9015C12.4388 20.9015 7.84241 25.4984 7.84241 31.1481V33.1819C7.84241 35.3475 6.08682 37.1031 3.9212 37.1031C1.75558 37.1031 0 38.8587 0 41.0243V43.4523C0 48.002 3.70148 51.7035 8.25119 51.7035C8.52676 51.7035 8.75015 51.9269 8.75015 52.2025V53.811C8.75015 54.7818 9.53715 55.5688 10.508 55.5688C11.4788 55.5688 12.2658 54.7818 12.2658 53.811V53.1864C12.2658 52.3674 12.9297 51.7035 13.7487 51.7035C14.5677 51.7035 15.2316 52.3674 15.2316 53.1864V53.811C15.2316 54.7818 16.0186 55.5688 16.9894 55.5688C17.9603 55.5688 18.7473 54.7818 18.7473 53.811V53.5776C18.7473 52.5187 19.585 51.6658 20.6136 51.4142C25.0406 50.3311 28.3356 46.3303 28.3356 41.5741V35.6186C28.3356 34.6994 29.0808 33.9542 30 33.9542C30.9192 33.9542 31.6644 34.6994 31.6644 35.6186V41.5741C31.6644 46.3303 34.9594 50.3311 39.3864 51.4142C40.415 51.6658 41.2527 52.5187 41.2527 53.5776V53.811C41.2527 54.7818 42.0397 55.5688 43.0106 55.5688C43.9814 55.5688 44.7684 54.7818 44.7684 53.811V53.1864C44.7684 52.3674 45.4323 51.7035 46.2513 51.7035C47.0703 51.7035 47.7342 52.3674 47.7342 53.1864V53.811C47.7342 54.7818 48.5212 55.5688 49.492 55.5688C50.4628 55.5688 51.2498 54.7818 51.2498 53.811V52.2025C51.2498 51.9269 51.4732 51.7035 51.7488 51.7035C56.2985 51.7035 60 48.002 60 43.4523V41.0243C60 38.8587 58.2444 37.1031 56.0788 37.1031ZM21.5918 39.8245C21.5918 42.7588 19.205 45.146 16.2708 45.146H14.8453C13.8745 45.146 13.0875 44.359 13.0875 43.3882C13.0875 42.4174 13.8745 41.6304 14.8453 41.6304H16.2708C17.2664 41.6304 18.0762 40.8206 18.0762 39.8245C18.0762 38.8537 18.8632 38.0594 19.834 38.0594C20.8048 38.0594 21.5918 38.8537 21.5918 39.8245ZM21.5918 30.8318C21.5918 31.8026 20.8048 32.5896 19.834 32.5896C18.8632 32.5896 18.0762 31.8026 18.0762 30.8318C18.0762 29.8609 18.8632 29.0739 19.834 29.0739C20.8048 29.0739 21.5918 29.8609 21.5918 30.8318ZM38.4082 30.8318C38.4082 29.8609 39.1952 29.0739 40.166 29.0739C41.1368 29.0739 41.9238 29.8609 41.9238 30.8318C41.9238 31.8026 41.1368 32.5896 40.166 32.5896C39.1952 32.5896 38.4082 31.8026 38.4082 30.8318ZM46.9125 43.3882C46.9125 44.359 46.1255 45.146 45.1547 45.146H43.7292C40.795 45.146 38.4082 42.7588 38.4082 39.8245C38.4082 38.8537 39.1952 38.0594 40.166 38.0594C41.1368 38.0594 41.9238 38.8537 41.9238 39.8245C41.9238 40.8206 42.7336 41.6304 43.7292 41.6304H45.1547C46.1255 41.6304 46.9125 42.4174 46.9125 43.3882Z" fill="url(#paint1_linear_17_4432)"/>
</g>
<path d="M81.6897 37C81.5284 37 81.3964 36.9487 81.2937 36.846C81.2057 36.7433 81.1617 36.6113 81.1617 36.45V34.91C81.1617 34.6607 81.213 34.47 81.3157 34.338C81.4184 34.1913 81.477 34.1107 81.4917 34.096L89.1477 24.196H81.9097C81.763 24.196 81.6384 24.1447 81.5357 24.042C81.433 23.9393 81.3817 23.8147 81.3817 23.668V22.15C81.3817 21.9887 81.4257 21.8567 81.5137 21.754C81.6164 21.6513 81.7484 21.6 81.9097 21.6H92.4257C92.587 21.6 92.719 21.6513 92.8217 21.754C92.9244 21.8567 92.9757 21.9887 92.9757 22.15V23.668C92.9757 23.932 92.8804 24.1887 92.6897 24.438L85.1877 34.382H92.6677C92.829 34.382 92.961 34.4333 93.0637 34.536C93.1664 34.6387 93.2177 34.7707 93.2177 34.932V36.472C93.2177 36.6333 93.1664 36.7653 93.0637 36.868C92.961 36.956 92.829 37 92.6677 37H81.6897ZM95.9478 37C95.8011 37 95.6764 36.9487 95.5738 36.846C95.4711 36.7433 95.4198 36.6187 95.4198 36.472V26.088C95.4198 25.9413 95.4711 25.8167 95.5738 25.714C95.6764 25.6113 95.8011 25.56 95.9478 25.56H97.7518C97.8984 25.56 98.0231 25.6113 98.1258 25.714C98.2284 25.8167 98.2798 25.9413 98.2798 26.088V26.99C99.1451 25.89 100.37 25.34 101.954 25.34C103.303 25.34 104.374 25.7873 105.166 26.682C105.958 27.562 106.354 28.7647 106.354 30.29V36.472C106.354 36.6187 106.302 36.7433 106.2 36.846C106.112 36.9487 105.987 37 105.826 37H103.89C103.743 37 103.618 36.9487 103.516 36.846C103.413 36.7433 103.362 36.6187 103.362 36.472V30.422C103.362 29.5567 103.149 28.8893 102.724 28.42C102.313 27.936 101.712 27.694 100.92 27.694C100.142 27.694 99.5264 27.936 99.0718 28.42C98.6318 28.904 98.4118 29.5713 98.4118 30.422V36.472C98.4118 36.6187 98.3604 36.7433 98.2578 36.846C98.1698 36.9487 98.0451 37 97.8838 37H95.9478ZM112.47 37.22C111.722 37.22 111.033 37.0733 110.402 36.78C109.786 36.472 109.295 36.0613 108.928 35.548C108.576 35.0347 108.4 34.47 108.4 33.854C108.4 32.8567 108.804 32.05 109.61 31.434C110.417 30.818 111.524 30.4 112.932 30.18L115.946 29.74V29.278C115.946 28.6327 115.785 28.1487 115.462 27.826C115.14 27.5033 114.619 27.342 113.9 27.342C113.416 27.342 113.02 27.4373 112.712 27.628C112.419 27.804 112.184 27.98 112.008 28.156C111.832 28.3467 111.715 28.4713 111.656 28.53C111.598 28.706 111.488 28.794 111.326 28.794H109.632C109.5 28.794 109.383 28.75 109.28 28.662C109.192 28.574 109.148 28.4567 109.148 28.31C109.163 27.9433 109.339 27.5253 109.676 27.056C110.028 26.5867 110.564 26.1833 111.282 25.846C112.001 25.5087 112.881 25.34 113.922 25.34C115.653 25.34 116.914 25.7287 117.706 26.506C118.498 27.2833 118.894 28.3027 118.894 29.564V36.472C118.894 36.6187 118.843 36.7433 118.74 36.846C118.652 36.9487 118.528 37 118.366 37H116.584C116.438 37 116.313 36.9487 116.21 36.846C116.108 36.7433 116.056 36.6187 116.056 36.472V35.614C115.734 36.0833 115.272 36.472 114.67 36.78C114.084 37.0733 113.35 37.22 112.47 37.22ZM113.218 35.13C114.025 35.13 114.685 34.866 115.198 34.338C115.712 33.81 115.968 33.04 115.968 32.028V31.566L113.768 31.918C112.918 32.05 112.272 32.2627 111.832 32.556C111.407 32.8493 111.194 33.2087 111.194 33.634C111.194 34.1033 111.392 34.47 111.788 34.734C112.184 34.998 112.661 35.13 113.218 35.13ZM122.267 37C122.12 37 121.995 36.9487 121.893 36.846C121.79 36.7433 121.739 36.6187 121.739 36.472V21.908C121.739 21.7467 121.79 21.622 121.893 21.534C121.995 21.4313 122.12 21.38 122.267 21.38H124.049C124.21 21.38 124.335 21.4313 124.423 21.534C124.525 21.622 124.577 21.7467 124.577 21.908V29.432L128.273 25.934C128.317 25.9047 128.39 25.846 128.493 25.758C128.581 25.6847 128.669 25.6333 128.757 25.604C128.845 25.5747 128.955 25.56 129.087 25.56H131.133C131.279 25.56 131.397 25.604 131.485 25.692C131.573 25.78 131.617 25.8973 131.617 26.044C131.617 26.176 131.543 26.308 131.397 26.44L126.865 30.686L131.947 36.142C132.093 36.2887 132.167 36.4133 132.167 36.516C132.167 36.6627 132.115 36.78 132.013 36.868C131.925 36.956 131.815 37 131.683 37H129.593C129.387 37 129.233 36.978 129.131 36.934C129.043 36.8753 128.925 36.7727 128.779 36.626L124.577 32.204V36.472C124.577 36.6187 124.525 36.7433 124.423 36.846C124.335 36.9487 124.21 37 124.049 37H122.267ZM138.335 37.22C136.619 37.22 135.292 36.78 134.353 35.9C133.415 35.0053 132.909 33.788 132.835 32.248L132.813 31.28L132.835 30.312C132.909 28.7867 133.422 27.5767 134.375 26.682C135.329 25.7873 136.649 25.34 138.335 25.34C140.022 25.34 141.342 25.7873 142.295 26.682C143.249 27.5767 143.762 28.7867 143.835 30.312C143.85 30.488 143.857 30.8107 143.857 31.28C143.857 31.7493 143.85 32.072 143.835 32.248C143.762 33.788 143.256 35.0053 142.317 35.9C141.379 36.78 140.051 37.22 138.335 37.22ZM138.335 35.042C139.113 35.042 139.714 34.8 140.139 34.316C140.565 33.8173 140.799 33.0913 140.843 32.138C140.858 31.9913 140.865 31.7053 140.865 31.28C140.865 30.8547 140.858 30.5687 140.843 30.422C140.799 29.4687 140.565 28.75 140.139 28.266C139.714 27.7673 139.113 27.518 138.335 27.518C137.558 27.518 136.957 27.7673 136.531 28.266C136.106 28.75 135.871 29.4687 135.827 30.422L135.805 31.28L135.827 32.138C135.871 33.0913 136.106 33.8173 136.531 34.316C136.957 34.8 137.558 35.042 138.335 35.042ZM146.823 37C146.676 37 146.551 36.9487 146.449 36.846C146.346 36.7433 146.295 36.6187 146.295 36.472V26.088C146.295 25.9413 146.346 25.8167 146.449 25.714C146.551 25.6113 146.676 25.56 146.823 25.56H148.539C148.685 25.56 148.81 25.6113 148.913 25.714C149.015 25.8167 149.067 25.9413 149.067 26.088V26.836C149.829 25.8387 150.893 25.34 152.257 25.34C153.885 25.34 155.021 25.9927 155.667 27.298C156.019 26.7113 156.517 26.242 157.163 25.89C157.808 25.5233 158.505 25.34 159.253 25.34C160.455 25.34 161.438 25.7507 162.201 26.572C162.963 27.3933 163.345 28.5887 163.345 30.158V36.472C163.345 36.6187 163.293 36.7433 163.191 36.846C163.103 36.9487 162.978 37 162.817 37H161.013C160.866 37 160.741 36.9487 160.639 36.846C160.536 36.7433 160.485 36.6187 160.485 36.472V30.334C160.485 29.41 160.287 28.7427 159.891 28.332C159.509 27.9067 158.996 27.694 158.351 27.694C157.779 27.694 157.287 27.9067 156.877 28.332C156.481 28.7573 156.283 29.4247 156.283 30.334V36.472C156.283 36.6187 156.231 36.7433 156.129 36.846C156.026 36.9487 155.901 37 155.755 37H153.951C153.804 37 153.679 36.9487 153.577 36.846C153.474 36.7433 153.423 36.6187 153.423 36.472V30.334C153.423 29.41 153.217 28.7427 152.807 28.332C152.411 27.9067 151.905 27.694 151.289 27.694C150.702 27.694 150.203 27.9067 149.793 28.332C149.397 28.7573 149.199 29.4247 149.199 30.334V36.472C149.199 36.6187 149.147 36.7433 149.045 36.846C148.942 36.9487 148.817 37 148.671 37H146.823ZM170.48 37.22C169.38 37.22 168.456 37.0587 167.708 36.736C166.96 36.3987 166.403 36.01 166.036 35.57C165.684 35.1153 165.508 34.7267 165.508 34.404C165.508 34.2573 165.56 34.14 165.662 34.052C165.765 33.964 165.882 33.92 166.014 33.92H167.752C167.884 33.92 167.994 33.9713 168.082 34.074C168.141 34.118 168.295 34.25 168.544 34.47C168.794 34.7047 169.087 34.888 169.424 35.02C169.762 35.152 170.136 35.218 170.546 35.218C171.133 35.218 171.617 35.1007 171.998 34.866C172.38 34.6313 172.57 34.3087 172.57 33.898C172.57 33.59 172.482 33.3407 172.306 33.15C172.145 32.9593 171.844 32.7907 171.404 32.644C170.964 32.4827 170.312 32.314 169.446 32.138C168.2 31.874 167.276 31.4707 166.674 30.928C166.088 30.3853 165.794 29.6667 165.794 28.772C165.794 28.1853 165.97 27.6353 166.322 27.122C166.674 26.594 167.195 26.1687 167.884 25.846C168.588 25.5087 169.424 25.34 170.392 25.34C171.375 25.34 172.226 25.5013 172.944 25.824C173.663 26.132 174.206 26.506 174.572 26.946C174.954 27.3713 175.144 27.7527 175.144 28.09C175.144 28.222 175.093 28.3393 174.99 28.442C174.902 28.53 174.792 28.574 174.66 28.574H173.032C172.915 28.574 172.79 28.5227 172.658 28.42C172.556 28.3467 172.394 28.2073 172.174 28.002C171.954 27.7967 171.698 27.6353 171.404 27.518C171.111 27.4007 170.766 27.342 170.37 27.342C169.828 27.342 169.402 27.4593 169.094 27.694C168.801 27.9287 168.654 28.2367 168.654 28.618C168.654 28.8967 168.728 29.124 168.874 29.3C169.021 29.476 169.307 29.6447 169.732 29.806C170.158 29.9673 170.796 30.1287 171.646 30.29C173.054 30.5687 174.059 31.0013 174.66 31.588C175.276 32.1747 175.584 32.8933 175.584 33.744C175.584 34.7707 175.137 35.6067 174.242 36.252C173.348 36.8973 172.094 37.22 170.48 37.22ZM182.982 37C181.648 37 180.643 36.6553 179.968 35.966C179.308 35.262 178.978 34.2353 178.978 32.886V27.892H177.24C177.094 27.892 176.969 27.8407 176.866 27.738C176.764 27.6207 176.712 27.4887 176.712 27.342V26.088C176.712 25.9413 176.764 25.8167 176.866 25.714C176.969 25.6113 177.094 25.56 177.24 25.56H178.978V21.908C178.978 21.7467 179.03 21.622 179.132 21.534C179.235 21.4313 179.36 21.38 179.506 21.38H181.288C181.45 21.38 181.574 21.4313 181.662 21.534C181.765 21.622 181.816 21.7467 181.816 21.908V25.56H184.566C184.728 25.56 184.852 25.6113 184.94 25.714C185.043 25.802 185.094 25.9267 185.094 26.088V27.342C185.094 27.5033 185.043 27.6353 184.94 27.738C184.838 27.8407 184.713 27.892 184.566 27.892H181.816V32.666C181.816 33.2967 181.926 33.7733 182.146 34.096C182.366 34.4187 182.733 34.58 183.246 34.58H184.764C184.911 34.58 185.036 34.6313 185.138 34.734C185.241 34.8367 185.292 34.9613 185.292 35.108V36.472C185.292 36.6187 185.241 36.7433 185.138 36.846C185.05 36.9487 184.926 37 184.764 37H182.982ZM191.292 37C191.072 37 190.903 36.956 190.786 36.868C190.669 36.7653 190.573 36.626 190.5 36.45L186.386 26.242L186.342 26.044C186.342 25.912 186.386 25.802 186.474 25.714C186.577 25.6113 186.694 25.56 186.826 25.56H188.608C188.887 25.56 189.077 25.6993 189.18 25.978L192.106 33.7L195.032 25.978C195.076 25.8753 195.142 25.78 195.23 25.692C195.333 25.604 195.457 25.56 195.604 25.56H197.408C197.525 25.56 197.628 25.6113 197.716 25.714C197.819 25.802 197.87 25.912 197.87 26.044C197.87 26.132 197.863 26.198 197.848 26.242L193.712 36.45C193.639 36.626 193.543 36.7653 193.426 36.868C193.309 36.956 193.14 37 192.92 37H191.292ZM202.726 37.22C201.978 37.22 201.289 37.0733 200.658 36.78C200.042 36.472 199.551 36.0613 199.184 35.548C198.832 35.0347 198.656 34.47 198.656 33.854C198.656 32.8567 199.059 32.05 199.866 31.434C200.673 30.818 201.78 30.4 203.188 30.18L206.202 29.74V29.278C206.202 28.6327 206.041 28.1487 205.718 27.826C205.395 27.5033 204.875 27.342 204.156 27.342C203.672 27.342 203.276 27.4373 202.968 27.628C202.675 27.804 202.44 27.98 202.264 28.156C202.088 28.3467 201.971 28.4713 201.912 28.53C201.853 28.706 201.743 28.794 201.582 28.794H199.888C199.756 28.794 199.639 28.75 199.536 28.662C199.448 28.574 199.404 28.4567 199.404 28.31C199.419 27.9433 199.595 27.5253 199.932 27.056C200.284 26.5867 200.819 26.1833 201.538 25.846C202.257 25.5087 203.137 25.34 204.178 25.34C205.909 25.34 207.17 25.7287 207.962 26.506C208.754 27.2833 209.15 28.3027 209.15 29.564V36.472C209.15 36.6187 209.099 36.7433 208.996 36.846C208.908 36.9487 208.783 37 208.622 37H206.84C206.693 37 206.569 36.9487 206.466 36.846C206.363 36.7433 206.312 36.6187 206.312 36.472V35.614C205.989 36.0833 205.527 36.472 204.926 36.78C204.339 37.0733 203.606 37.22 202.726 37.22ZM203.474 35.13C204.281 35.13 204.941 34.866 205.454 34.338C205.967 33.81 206.224 33.04 206.224 32.028V31.566L204.024 31.918C203.173 32.05 202.528 32.2627 202.088 32.556C201.663 32.8493 201.45 33.2087 201.45 33.634C201.45 34.1033 201.648 34.47 202.044 34.734C202.44 34.998 202.917 35.13 203.474 35.13ZM212.369 37C212.222 37 212.097 36.9487 211.995 36.846C211.892 36.7433 211.841 36.6187 211.841 36.472V34.294C211.841 34.1473 211.892 34.0227 211.995 33.92C212.097 33.8027 212.222 33.744 212.369 33.744H214.569C214.715 33.744 214.84 33.8027 214.943 33.92C215.045 34.0227 215.097 34.1473 215.097 34.294V36.472C215.097 36.6187 215.045 36.7433 214.943 36.846C214.84 36.9487 214.715 37 214.569 37H212.369ZM222.659 37.22C221.046 37.22 219.755 36.7727 218.787 35.878C217.834 34.9833 217.328 33.744 217.269 32.16L217.247 31.28L217.269 30.4C217.328 28.816 217.834 27.5767 218.787 26.682C219.755 25.7873 221.046 25.34 222.659 25.34C223.803 25.34 224.771 25.5453 225.563 25.956C226.37 26.3667 226.964 26.8727 227.345 27.474C227.741 28.0607 227.954 28.618 227.983 29.146C227.998 29.2927 227.946 29.4173 227.829 29.52C227.726 29.6227 227.602 29.674 227.455 29.674H225.519C225.372 29.674 225.255 29.6447 225.167 29.586C225.094 29.5127 225.02 29.3953 224.947 29.234C224.727 28.662 224.434 28.2513 224.067 28.002C223.715 27.7527 223.26 27.628 222.703 27.628C221.955 27.628 221.368 27.87 220.943 28.354C220.518 28.8233 220.29 29.542 220.261 30.51L220.239 31.324L220.261 32.05C220.32 33.9713 221.134 34.932 222.703 34.932C223.275 34.932 223.737 34.8073 224.089 34.558C224.441 34.3087 224.727 33.898 224.947 33.326C225.02 33.1647 225.094 33.0547 225.167 32.996C225.255 32.9227 225.372 32.886 225.519 32.886H227.455C227.602 32.886 227.726 32.9373 227.829 33.04C227.946 33.1427 227.998 33.2673 227.983 33.414C227.954 33.9273 227.748 34.4773 227.367 35.064C226.986 35.6507 226.399 36.1567 225.607 36.582C224.815 37.0073 223.832 37.22 222.659 37.22ZM235.337 37.22C233.621 37.22 232.294 36.78 231.355 35.9C230.417 35.0053 229.911 33.788 229.837 32.248L229.815 31.28L229.837 30.312C229.911 28.7867 230.424 27.5767 231.377 26.682C232.331 25.7873 233.651 25.34 235.337 25.34C237.024 25.34 238.344 25.7873 239.297 26.682C240.251 27.5767 240.764 28.7867 240.837 30.312C240.852 30.488 240.859 30.8107 240.859 31.28C240.859 31.7493 240.852 32.072 240.837 32.248C240.764 33.788 240.258 35.0053 239.319 35.9C238.381 36.78 237.053 37.22 235.337 37.22ZM235.337 35.042C236.115 35.042 236.716 34.8 237.141 34.316C237.567 33.8173 237.801 33.0913 237.845 32.138C237.86 31.9913 237.867 31.7053 237.867 31.28C237.867 30.8547 237.86 30.5687 237.845 30.422C237.801 29.4687 237.567 28.75 237.141 28.266C236.716 27.7673 236.115 27.518 235.337 27.518C234.56 27.518 233.959 27.7673 233.533 28.266C233.108 28.75 232.873 29.4687 232.829 30.422L232.807 31.28L232.829 32.138C232.873 33.0913 233.108 33.8173 233.533 34.316C233.959 34.8 234.56 35.042 235.337 35.042ZM243.825 37C243.678 37 243.553 36.9487 243.451 36.846C243.348 36.7433 243.297 36.6187 243.297 36.472V26.088C243.297 25.9413 243.348 25.8167 243.451 25.714C243.553 25.6113 243.678 25.56 243.825 25.56H245.541C245.687 25.56 245.812 25.6113 245.915 25.714C246.017 25.8167 246.069 25.9413 246.069 26.088V26.836C246.831 25.8387 247.895 25.34 249.259 25.34C250.887 25.34 252.023 25.9927 252.669 27.298C253.021 26.7113 253.519 26.242 254.165 25.89C254.81 25.5233 255.507 25.34 256.255 25.34C257.457 25.34 258.44 25.7507 259.203 26.572C259.965 27.3933 260.347 28.5887 260.347 30.158V36.472C260.347 36.6187 260.295 36.7433 260.193 36.846C260.105 36.9487 259.98 37 259.819 37H258.015C257.868 37 257.743 36.9487 257.641 36.846C257.538 36.7433 257.487 36.6187 257.487 36.472V30.334C257.487 29.41 257.289 28.7427 256.893 28.332C256.511 27.9067 255.998 27.694 255.353 27.694C254.781 27.694 254.289 27.9067 253.879 28.332C253.483 28.7573 253.285 29.4247 253.285 30.334V36.472C253.285 36.6187 253.233 36.7433 253.131 36.846C253.028 36.9487 252.903 37 252.757 37H250.953C250.806 37 250.681 36.9487 250.579 36.846C250.476 36.7433 250.425 36.6187 250.425 36.472V30.334C250.425 29.41 250.219 28.7427 249.809 28.332C249.413 27.9067 248.907 27.694 248.291 27.694C247.704 27.694 247.205 27.9067 246.795 28.332C246.399 28.7573 246.201 29.4247 246.201 30.334V36.472C246.201 36.6187 246.149 36.7433 246.047 36.846C245.944 36.9487 245.819 37 245.673 37H243.825Z" fill="white"/>
<defs>
<linearGradient id="paint0_linear_17_4432" x1="20.0983" y1="13.763" x2="39.902" y2="13.763" gradientUnits="userSpaceOnUse">
<stop stop-color="#EE0979"/>
<stop offset="1" stop-color="#FF6A00"/>
</linearGradient>
<linearGradient id="paint1_linear_17_4432" x1="-3.35276e-07" y1="38.2352" x2="60" y2="38.2352" gradientUnits="userSpaceOnUse">
<stop stop-color="#EE0979"/>
<stop offset="1" stop-color="#FF6A00"/>
</linearGradient>
<clipPath id="clip0_17_4432">
<rect width="60" height="60" fill="white"/>
</clipPath>
</defs>
</svg>
